HandBrake 20250906052339-dddf75f75-makepkg (2025092401)
OS: Arch Linux
Kernel: Linux 6.18.5-arch1-1 (x86_64)
CPU: 13th Gen Intel(R) Core(TM) i5-13600KF x 20
Install Dir: /usr/bin
Config Dir:  /home/ryskowalski/.config/ghb
_______________________________

[16:55:14] Compile-time hardening features are enabled
[16:55:14] nvenc: version 13.0 is available
[16:55:14] nvdec: is available
[16:55:14] CUDA Version: 8.9
[16:55:14] vcn: not available on this system
[16:55:14] qsv: not available on this system
[16:55:14] hb_init: starting libhb thread
[16:55:14] hb_init: starting libhb thread
[16:55:14] hb_init: starting libhb thread

(fr.handbrake.ghb:3638): Gtk-WARNING **: 16:55:14.856: GtkGrid 0x5613f02c73e0 (grid) reported min width 261 and natural width 260 in measure() with for_size=-1; natural size must be >= min size

(fr.handbrake.ghb:3638): Gtk-WARNING **: 16:55:14.893: GtkGrid 0x5613f02c73e0 (grid) reported min width 261 and natural width 260 in measure() with for_size=-1; natural size must be >= min size
[16:55:32] gtkgui: Excluded extension jpg
[16:55:32] gtkgui: Excluded extension png
[16:55:32] gtkgui: Excluded extension srt
[16:55:32] gtkgui: Excluded extension ssa
[16:55:32] gtkgui: Excluded extension ass
[16:55:32] gtkgui: Excluded extension txt
[16:55:32] CPU: 13th Gen Intel(R) Core(TM) i5-13600KF
[16:55:32]  - logical processor count: 20
[16:55:32] Intel Quick Sync Video support: no
[16:55:32] hb_scan: path=/home/ryskowalski/Videos/owshit.mp4, title_index=0
Input #0, mov,mp4,m4a,3gp,3g2,mj2, from '/home/ryskowalski/Videos/owshit.mp4':
  Metadata:
    major_brand     : isom
    minor_version   : 512
    compatible_brands: isomiso2avc1mp41
    encoder         : Lavf62.3.100
  Duration: 00:02:06.61, start: 0.000000, bitrate: 4756 kb/s
  Stream #0:0[0x1](und): Video: h264 (High) (avc1 / 0x31637661), yuv420p(tv, bt709, progressive), 3072x4080 [SAR 1:1 DAR 64:85], 4589 kb/s, 25 fps, 25 tbr, 12800 tbn (default)
      Metadata:
        handler_name    : VideoHandler
        vendor_id       : [0][0][0][0]
  Stream #0:1[0x2](und): Audio: aac (LC) (mp4a / 0x6134706D), 48000 Hz, stereo, fltp, 160 kb/s (default)
      Metadata:
        handler_name    : SoundHandler
        vendor_id       : [0][0][0][0]
[16:55:32] scan: decoding previews for title 1
[16:55:32] scan: audio 0x1: aac, rate=48000Hz, bitrate=160978 Unknown (AAC LC, 2.0 ch, 160 kbps)
[16:55:33] using container PAR 1:1
[16:55:33] scan: 10 previews, 3072x4080, 25.000 fps, autocrop = 800/800/390/390, aspect 1:1.33, PAR 1:1, color profile: 1-1-1, chroma location: left
[16:55:33] libhb: scan thread found 1 valid title(s)

(fr.handbrake.ghb:3638): Gtk-WARNING **: 16:55:33.250: GtkGrid 0x5613f02c73e0 (grid) reported min width 261 and natural width 260 in measure() with for_size=-1; natural size must be >= min size
[16:55:48] gtkgui: Preset: /General/Fast 1080p30
[16:55:48] Starting work at: Wed Jan 14 16:55:48 2026

[16:55:48] 1 job(s) to process
[16:55:48] json job:
{
    "Audio": {
        "AudioList": [
            {
                "Bitrate": 160,
                "CompressionLevel": -1.0,
                "DRC": 0.0,
                "DitherMethod": "auto",
                "Encoder": "av_aac",
                "Gain": 0.0,
                "Mixdown": "stereo",
                "Name": "Stereo",
                "NormalizeMixLevel": false,
                "PresetEncoder": "av_aac",
                "Quality": -3.0,
                "Samplerate": 0,
                "Track": 0
            }
        ],
        "CopyMask": [
            "copy:aac"
        ],
        "FallbackEncoder": "av_aac"
    },
    "Destination": {
        "AlignAVStart": true,
        "ChapterList": [
            {
                "Duration": {
                    "Hours": 0,
                    "Minutes": 2,
                    "Seconds": 6,
                    "Ticks": 11395170
                },
                "Name": ""
            }
        ],
        "ChapterMarkers": false,
        "File": "/home/ryskowalski/Videos/owshit compressed.mp4",
        "InlineParameterSets": false,
        "Mux": "m4v",
        "Options": {
            "IpodAtom": false,
            "Optimize": false
        }
    },
    "Filters": {
        "FilterList": [
            {
                "ID": 4,
                "Settings": {
                    "block-height": "16",
                    "block-thresh": "40",
                    "block-width": "16",
                    "filter-mode": "2",
                    "mode": "3",
                    "motion-thresh": "1",
                    "spatial-metric": "2",
                    "spatial-thresh": "1"
                }
            },
            {
                "ID": 6,
                "Settings": {
                    "mode": "7"
                }
            },
            {
                "ID": 11,
                "Settings": {
                    "mode": 2,
                    "rate": "27000000/900000"
                }
            },
            {
                "ID": 20,
                "Settings": {
                    "crop-bottom": 800,
                    "crop-left": 390,
                    "crop-right": 390,
                    "crop-top": 800,
                    "height": 1080,
                    "width": 1920
                }
            }
        ]
    },
    "Metadata": {},
    "PAR": {
        "Den": 9920,
        "Num": 5157
    },
    "SequenceID": 0,
    "Source": {
        "Angle": 0,
        "HWDecode": 0,
        "KeepDuplicateTitles": false,
        "Path": "/home/ryskowalski/Videos/owshit.mp4",
        "Range": {
            "End": 1,
            "Start": 1,
            "Type": "chapter"
        },
        "Title": 1
    },
    "Subtitle": {
        "Search": {
            "Burn": true,
            "Default": false,
            "Enable": false,
            "Forced": false
        },
        "SubtitleList": []
    },
    "Video": {
        "AdapterIndex": -1,
        "AsyncDepth": 0,
        "ChromaLocation": 1,
        "ColorInputFormat": 0,
        "ColorMatrix": 1,
        "ColorOutputFormat": 0,
        "ColorPrimaries": 1,
        "ColorRange": 1,
        "ColorTransfer": 1,
        "Encoder": "x264",
        "HardwareDecode": 0,
        "Level": "4.0",
        "MultiPass": false,
        "Options": "",
        "PasshtruHDRDynamicMetadata": 6,
        "Preset": "fast",
        "Profile": "main",
        "Quality": 22.0,
        "Tune": "",
        "Turbo": false
    }
}
[16:55:48] CPU: 13th Gen Intel(R) Core(TM) i5-13600KF
[16:55:48]  - logical processor count: 20
[16:55:48] Intel Quick Sync Video support: no
[16:55:48] hb_scan: path=/home/ryskowalski/Videos/owshit.mp4, title_index=1
Input #0, mov,mp4,m4a,3gp,3g2,mj2, from '/home/ryskowalski/Videos/owshit.mp4':
  Metadata:
    major_brand     : isom
    minor_version   : 512
    compatible_brands: isomiso2avc1mp41
    encoder         : Lavf62.3.100
  Duration: 00:02:06.61, start: 0.000000, bitrate: 4756 kb/s
  Stream #0:0[0x1](und): Video: h264 (High) (avc1 / 0x31637661), yuv420p(tv, bt709, progressive), 3072x4080 [SAR 1:1 DAR 64:85], 4589 kb/s, 25 fps, 25 tbr, 12800 tbn (default)
      Metadata:
        handler_name    : VideoHandler
        vendor_id       : [0][0][0][0]
  Stream #0:1[0x2](und): Audio: aac (LC) (mp4a / 0x6134706D), 48000 Hz, stereo, fltp, 160 kb/s (default)
      Metadata:
        handler_name    : SoundHandler
        vendor_id       : [0][0][0][0]
[16:55:48] scan: decoding previews for title 1
[16:55:48] scan: audio 0x1: aac, rate=48000Hz, bitrate=160978 Unknown (AAC LC, 2.0 ch, 160 kbps)
[16:55:49] using container PAR 1:1
[16:55:49] scan: 10 previews, 3072x4080, 25.000 fps, autocrop = 800/800/390/390, aspect 1:1.33, PAR 1:1, color profile: 1-1-1, chroma location: left
[16:55:49] libhb: scan thread found 1 valid title(s)
[16:55:49] Starting Task: Encoding Pass
[16:55:49] job configuration:
[16:55:49]  * source
[16:55:49]    + /home/ryskowalski/Videos/owshit.mp4
[16:55:49]    + title 1, chapter(s) 1 to 1
[16:55:49]    + container: mov,mp4,m4a,3gp,3g2,mj2
[16:55:49]    + data rate: 4756 kbps
[16:55:49]  * destination
[16:55:49]    + /home/ryskowalski/Videos/owshit compressed.mp4
[16:55:49]    + container: MPEG-4 (libavformat)
[16:55:49]      + align initial A/V stream timestamps
[16:55:49]  * video track
[16:55:49]    + decoder: h264 8-bit (yuv420p)
[16:55:49]      + bitrate 4589 kbps
[16:55:49]    + filters
[16:55:49]      + Comb Detect (mode=3:spatial-metric=2:motion-thresh=1:spatial-thresh=1:filter-mode=2:block-thresh=40:block-width=16:block-height=16)
[16:55:49]      + Decomb (mode=39)
[16:55:49]      + Framerate Shaper (mode=2:rate=27000000/900000)
[16:55:49]        + frame rate: 25.000 fps -> peak rate limited to 30.000 fps
[16:55:49]      + Crop and Scale (width=1920:height=1080:crop-top=800:crop-bottom=800:crop-left=390:crop-right=390)
[16:55:49]        + source: 3072 * 4080, crop (800/800/390/390): 2292 * 2480, scale: 1920 * 1080
[16:55:49]    + Output geometry
[16:55:49]      + storage dimensions: 1920 x 1080
[16:55:49]      + pixel aspect ratio: 5157 : 9920
[16:55:49]      + display dimensions: 998 x 1080
[16:55:49]    + encoder: H.264 (libx264)
[16:55:49]      + preset:  fast
[16:55:49]      + profile: main
[16:55:49]      + level:   4.0
[16:55:49]      + quality: 22.00 (RF)
[16:55:49]      + color profile: 1-1-1
[16:55:49]      + color range: tv
[16:55:49]      + chroma location: left
[16:55:49]  * audio track 1
[16:55:49]    + name: Stereo
[16:55:49]    + decoder: Unknown (AAC LC, 2.0 ch, 160 kbps) (track 1, id 0x1)
[16:55:49]      + bitrate: 160 kbps, samplerate: 48000 Hz
[16:55:49]    + mixdown: Stereo
[16:55:49]    + encoder: AAC (libavcodec)
[16:55:49]      + bitrate: 160 kbps, samplerate: 48000 Hz
[16:55:49] sync: expecting 3165 video frames
[16:55:49] encx264: encoding at constant RF 22.000000
[16:55:49] encx264: unparsed options: level=4.0:ref=2:8x8dct=0:weightp=1:subme=6:vbv-bufsize=25000:vbv-maxrate=20000:rc-lookahead=30
x264 [info]: using SAR=5157/9920
x264 [info]: using cpu capabilities: MMX2 SSE2Fast SSSE3 SSE4.2 AVX FMA3 BMI2 AVX2
x264 [info]: profile Main, level 4.0, 4:2:0, 8-bit
[16:55:49] sync: first pts video is 0
[16:55:49] sync: Chapter 1 at frame 1 time 0
[16:55:49] sync: first pts audio 0x1 is 0
[16:55:54] work: average encoding speed for job is 91.187401 fps
[16:55:54] comb detect: heavy 0 | light 7 | uncombed 459 | total 466
[16:55:55] decomb: deinterlaced 0 | blended 7 | unfiltered 454 | total 461
[16:55:55] vfr: 457 frames output, 0 dropped and 0 duped for CFR/PFR
[16:55:55] vfr: lost time: 0 (0 frames)
[16:55:55] vfr: gained time: 0 (0 frames) (0 not accounted for)
[16:55:55] aac-decoder done: 1026 frames, 0 decoder errors
[16:55:55] h264-decoder done: 521 frames, 0 decoder errors
[16:55:55] sync: got 484 frames, 3165 expected
[16:55:55] sync: framerate min 25.000 fps, max 25.000 fps, avg 25.000 fps
x264 [info]: frame I:9     Avg QP:17.68  size: 55581
x264 [info]: frame P:201   Avg QP:20.24  size: 27185
x264 [info]: frame B:181   Avg QP:19.24  size:  4902
x264 [info]: consecutive B-frames: 29.6% 23.0%  7.7% 39.8%
x264 [info]: mb I  I16..4: 64.1%  0.0% 35.9%
x264 [info]: mb P  I16..4: 38.9%  0.0% 12.8%  P16..4: 12.5%  3.9%  1.3%  0.0%  0.0%    skip:30.6%
x264 [info]: mb B  I16..4:  3.1%  0.0%  0.6%  B16..8: 10.1%  2.3%  0.1%  direct: 4.9%  skip:79.0%  L0:38.7% L1:59.4% BI: 1.9%
x264 [info]: coded y,uvDC,uvAC intra: 19.3% 46.5% 10.6% inter: 4.5% 12.5% 0.5%
x264 [info]: i16 v,h,dc,p: 38% 37%  7% 18%
x264 [info]: i4 v,h,dc,ddl,ddr,vr,hd,vl,hu: 19% 35% 19%  5%  5%  3%  7%  3%  4%
x264 [info]: i8c dc,h,v,p: 50% 31% 11%  8%
x264 [info]: Weighted P-Frames: Y:2.5% UV:2.5%
x264 [info]: ref P L0: 73.7% 26.3%
x264 [info]: ref B L0: 80.0% 20.0%
x264 [info]: ref B L1: 97.9%  2.1%
x264 [info]: kb/s:3504.70
[16:55:55] mux: track 0, 391 frames, 6851458 bytes, 2837.04 kbps, fifo 512
[16:55:55] mux: track 1, 905 frames, 357215 bytes, 147.92 kbps, fifo 1024
[16:55:55] Finished work at: Wed Jan 14 16:55:55 2026

[16:55:55] libhb: work result = 1
[16:56:50] gtkgui: Preset: /General/Fast 1080p30
[16:56:50] Starting work at: Wed Jan 14 16:56:50 2026

[16:56:50] 1 job(s) to process
[16:56:50] json job:
{
    "Audio": {
        "AudioList": [
            {
                "Bitrate": 160,
                "CompressionLevel": -1.0,
                "DRC": 0.0,
                "DitherMethod": "auto",
                "Encoder": "av_aac",
                "Gain": 0.0,
                "Mixdown": "stereo",
                "Name": "Stereo",
                "NormalizeMixLevel": false,
                "PresetEncoder": "av_aac",
                "Quality": -3.0,
                "Samplerate": 0,
                "Track": 0
            }
        ],
        "CopyMask": [
            "copy:aac"
        ],
        "FallbackEncoder": "av_aac"
    },
    "Destination": {
        "AlignAVStart": true,
        "ChapterList": [
            {
                "Duration": {
                    "Hours": 0,
                    "Minutes": 2,
                    "Seconds": 6,
                    "Ticks": 11395170
                },
                "Name": ""
            }
        ],
        "ChapterMarkers": false,
        "File": "/home/ryskowalski/Videos/owshit compressed.mp4",
        "InlineParameterSets": false,
        "Mux": "m4v",
        "Options": {
            "IpodAtom": false,
            "Optimize": false
        }
    },
    "Filters": {
        "FilterList": [
            {
                "ID": 4,
                "Settings": {
                    "block-height": "16",
                    "block-thresh": "40",
                    "block-width": "16",
                    "filter-mode": "2",
                    "mode": "3",
                    "motion-thresh": "1",
                    "spatial-metric": "2",
                    "spatial-thresh": "1"
                }
            },
            {
                "ID": 6,
                "Settings": {
                    "mode": "7"
                }
            },
            {
                "ID": 11,
                "Settings": {
                    "mode": 2,
                    "rate": "27000000/900000"
                }
            },
            {
                "ID": 20,
                "Settings": {
                    "crop-bottom": 800,
                    "crop-left": 390,
                    "crop-right": 390,
                    "crop-top": 800,
                    "height": 1080,
                    "width": 1920
                }
            }
        ]
    },
    "Metadata": {},
    "PAR": {
        "Den": 9920,
        "Num": 5157
    },
    "SequenceID": 0,
    "Source": {
        "Angle": 0,
        "HWDecode": 0,
        "KeepDuplicateTitles": false,
        "Path": "/home/ryskowalski/Videos/owshit.mp4",
        "Range": {
            "End": 1,
            "Start": 1,
            "Type": "chapter"
        },
        "Title": 1
    },
    "Subtitle": {
        "Search": {
            "Burn": true,
            "Default": false,
            "Enable": false,
            "Forced": false
        },
        "SubtitleList": []
    },
    "Video": {
        "AdapterIndex": -1,
        "AsyncDepth": 0,
        "ChromaLocation": 1,
        "ColorInputFormat": 0,
        "ColorMatrix": 1,
        "ColorOutputFormat": 0,
        "ColorPrimaries": 1,
        "ColorRange": 1,
        "ColorTransfer": 1,
        "Encoder": "x264",
        "HardwareDecode": 0,
        "Level": "4.0",
        "MultiPass": false,
        "Options": "",
        "PasshtruHDRDynamicMetadata": 6,
        "Preset": "fast",
        "Profile": "main",
        "Quality": 22.0,
        "Tune": "",
        "Turbo": false
    }
}
[16:56:50] CPU: 13th Gen Intel(R) Core(TM) i5-13600KF
[16:56:50]  - logical processor count: 20
[16:56:50] Intel Quick Sync Video support: no
[16:56:50] hb_scan: path=/home/ryskowalski/Videos/owshit.mp4, title_index=1
Input #0, mov,mp4,m4a,3gp,3g2,mj2, from '/home/ryskowalski/Videos/owshit.mp4':
  Metadata:
    major_brand     : isom
    minor_version   : 512
    compatible_brands: isomiso2avc1mp41
    encoder         : Lavf62.3.100
  Duration: 00:02:06.61, start: 0.000000, bitrate: 4756 kb/s
  Stream #0:0[0x1](und): Video: h264 (High) (avc1 / 0x31637661), yuv420p(tv, bt709, progressive), 3072x4080 [SAR 1:1 DAR 64:85], 4589 kb/s, 25 fps, 25 tbr, 12800 tbn (default)
      Metadata:
        handler_name    : VideoHandler
        vendor_id       : [0][0][0][0]
  Stream #0:1[0x2](und): Audio: aac (LC) (mp4a / 0x6134706D), 48000 Hz, stereo, fltp, 160 kb/s (default)
      Metadata:
        handler_name    : SoundHandler
        vendor_id       : [0][0][0][0]
[16:56:50] scan: decoding previews for title 1
[16:56:50] scan: audio 0x1: aac, rate=48000Hz, bitrate=160978 Unknown (AAC LC, 2.0 ch, 160 kbps)
[16:56:50] using container PAR 1:1
[16:56:50] scan: 10 previews, 3072x4080, 25.000 fps, autocrop = 800/800/390/390, aspect 1:1.33, PAR 1:1, color profile: 1-1-1, chroma location: left
[16:56:50] libhb: scan thread found 1 valid title(s)
[16:56:51] Starting Task: Encoding Pass
[16:56:51] job configuration:
[16:56:51]  * source
[16:56:51]    + /home/ryskowalski/Videos/owshit.mp4
[16:56:51]    + title 1, chapter(s) 1 to 1
[16:56:51]    + container: mov,mp4,m4a,3gp,3g2,mj2
[16:56:51]    + data rate: 4756 kbps
[16:56:51]  * destination
[16:56:51]    + /home/ryskowalski/Videos/owshit compressed.mp4
[16:56:51]    + container: MPEG-4 (libavformat)
[16:56:51]      + align initial A/V stream timestamps
[16:56:51]  * video track
[16:56:51]    + decoder: h264 8-bit (yuv420p)
[16:56:51]      + bitrate 4589 kbps
[16:56:51]    + filters
[16:56:51]      + Comb Detect (mode=3:spatial-metric=2:motion-thresh=1:spatial-thresh=1:filter-mode=2:block-thresh=40:block-width=16:block-height=16)
[16:56:51]      + Decomb (mode=39)
[16:56:51]      + Framerate Shaper (mode=2:rate=27000000/900000)
[16:56:51]        + frame rate: 25.000 fps -> peak rate limited to 30.000 fps
[16:56:51]      + Crop and Scale (width=1920:height=1080:crop-top=800:crop-bottom=800:crop-left=390:crop-right=390)
[16:56:51]        + source: 3072 * 4080, crop (800/800/390/390): 2292 * 2480, scale: 1920 * 1080
[16:56:51]    + Output geometry
[16:56:51]      + storage dimensions: 1920 x 1080
[16:56:51]      + pixel aspect ratio: 5157 : 9920
[16:56:51]      + display dimensions: 998 x 1080
[16:56:51]    + encoder: H.264 (libx264)
[16:56:51]      + preset:  fast
[16:56:51]      + profile: main
[16:56:51]      + level:   4.0
[16:56:51]      + quality: 22.00 (RF)
[16:56:51]      + color profile: 1-1-1
[16:56:51]      + color range: tv
[16:56:51]      + chroma location: left
[16:56:51]  * audio track 1
[16:56:51]    + name: Stereo
[16:56:51]    + decoder: Unknown (AAC LC, 2.0 ch, 160 kbps) (track 1, id 0x1)
[16:56:51]      + bitrate: 160 kbps, samplerate: 48000 Hz
[16:56:51]    + mixdown: Stereo
[16:56:51]    + encoder: AAC (libavcodec)
[16:56:51]      + bitrate: 160 kbps, samplerate: 48000 Hz
[16:56:51] sync: expecting 3165 video frames
[16:56:51] encx264: encoding at constant RF 22.000000
[16:56:51] encx264: unparsed options: level=4.0:ref=2:8x8dct=0:weightp=1:subme=6:vbv-bufsize=25000:vbv-maxrate=20000:rc-lookahead=30
x264 [info]: using SAR=5157/9920
x264 [info]: using cpu capabilities: MMX2 SSE2Fast SSSE3 SSE4.2 AVX FMA3 BMI2 AVX2
x264 [info]: profile Main, level 4.0, 4:2:0, 8-bit
[16:56:51] sync: first pts video is 0
[16:56:51] sync: Chapter 1 at frame 1 time 0
[16:56:51] sync: first pts audio 0x1 is 0
[16:57:12] Starting work at: Wed Jan 14 16:57:12 2026

[16:57:12] 1 job(s) to process
[16:57:12] json job:
{
    "Audio": {
        "AudioList": [
            {
                "Bitrate": 160,
                "CompressionLevel": -1.0,
                "DRC": 0.0,
                "DitherMethod": "auto",
                "Encoder": "av_aac",
                "Gain": 0.0,
                "Mixdown": "stereo",
                "Name": "Stereo",
                "NormalizeMixLevel": false,
                "PresetEncoder": "av_aac",
                "Quality": -3.0,
                "Samplerate": 0,
                "Track": 0
            }
        ],
        "CopyMask": [
            "copy:aac"
        ],
        "FallbackEncoder": "av_aac"
    },
    "Destination": {
        "AlignAVStart": true,
        "ChapterList": [
            {
                "Duration": {
                    "Hours": 0,
                    "Minutes": 2,
                    "Seconds": 6,
                    "Ticks": 11395170
                },
                "Name": ""
            }
        ],
        "ChapterMarkers": false,
        "File": "/tmp/handbrake-7dVfNB/live01",
        "InlineParameterSets": false,
        "Mux": "m4v",
        "Options": {
            "IpodAtom": false,
            "Optimize": false
        }
    },
    "Filters": {
        "FilterList": [
            {
                "ID": 4,
                "Settings": {
                    "block-height": "16",
                    "block-thresh": "40",
                    "block-width": "16",
                    "filter-mode": "2",
                    "mode": "3",
                    "motion-thresh": "1",
                    "spatial-metric": "2",
                    "spatial-thresh": "1"
                }
            },
            {
                "ID": 6,
                "Settings": {
                    "mode": "7"
                }
            },
            {
                "ID": 11,
                "Settings": {
                    "mode": 2,
                    "rate": "27000000/900000"
                }
            },
            {
                "ID": 20,
                "Settings": {
                    "crop-bottom": 800,
                    "crop-left": 390,
                    "crop-right": 390,
                    "crop-top": 800,
                    "height": 1080,
                    "width": 1920
                }
            }
        ]
    },
    "Metadata": {},
    "PAR": {
        "Den": 9920,
        "Num": 5157
    },
    "SequenceID": 0,
    "Source": {
        "Angle": 0,
        "HWDecode": 0,
        "KeepDuplicateTitles": false,
        "Path": "/home/ryskowalski/Videos/owshit.mp4",
        "Range": {
            "End": 1350000,
            "SeekPoints": 10,
            "Start": 2,
            "Type": "preview"
        },
        "Title": 1
    },
    "Subtitle": {
        "Search": {
            "Burn": true,
            "Default": false,
            "Enable": false,
            "Forced": false
        },
        "SubtitleList": []
    },
    "Video": {
        "AdapterIndex": -1,
        "AsyncDepth": 0,
        "ChromaLocation": 1,
        "ColorInputFormat": 0,
        "ColorMatrix": 1,
        "ColorOutputFormat": 0,
        "ColorPrimaries": 1,
        "ColorRange": 1,
        "ColorTransfer": 1,
        "Encoder": "x264",
        "HardwareDecode": 0,
        "Level": "4.0",
        "MultiPass": false,
        "Options": "",
        "PasshtruHDRDynamicMetadata": 6,
        "Preset": "fast",
        "Profile": "main",
        "Quality": 22.0,
        "Tune": "",
        "Turbo": false
    }
}
[16:57:12] CPU: 13th Gen Intel(R) Core(TM) i5-13600KF
[16:57:12]  - logical processor count: 20
[16:57:12] Intel Quick Sync Video support: no
[16:57:12] hb_scan: path=/home/ryskowalski/Videos/owshit.mp4, title_index=1
Input #0, mov,mp4,m4a,3gp,3g2,mj2, from '/home/ryskowalski/Videos/owshit.mp4':
  Metadata:
    major_brand     : isom
    minor_version   : 512
    compatible_brands: isomiso2avc1mp41
    encoder         : Lavf62.3.100
  Duration: 00:02:06.61, start: 0.000000, bitrate: 4756 kb/s
  Stream #0:0[0x1](und): Video: h264 (High) (avc1 / 0x31637661), yuv420p(tv, bt709, progressive), 3072x4080 [SAR 1:1 DAR 64:85], 4589 kb/s, 25 fps, 25 tbr, 12800 tbn (default)
      Metadata:
        handler_name    : VideoHandler
        vendor_id       : [0][0][0][0]
  Stream #0:1[0x2](und): Audio: aac (LC) (mp4a / 0x6134706D), 48000 Hz, stereo, fltp, 160 kb/s (default)
      Metadata:
        handler_name    : SoundHandler
        vendor_id       : [0][0][0][0]
[16:57:12] scan: decoding previews for title 1
[16:57:13] scan: audio 0x1: aac, rate=48000Hz, bitrate=160978 Unknown (AAC LC, 2.0 ch, 160 kbps)
[16:57:14] using container PAR 1:1
[16:57:14] scan: 10 previews, 3072x4080, 25.000 fps, autocrop = 800/800/390/390, aspect 1:1.33, PAR 1:1, color profile: 1-1-1, chroma location: left
[16:57:14] libhb: scan thread found 1 valid title(s)
[16:57:14] Starting Task: Encoding Pass
[16:57:14] job configuration:
[16:57:14]  * source
[16:57:14]    + /home/ryskowalski/Videos/owshit.mp4
[16:57:14]    + title 1, start 00:00:00.00 stop 00:00:15.00
[16:57:14]    + container: mov,mp4,m4a,3gp,3g2,mj2
[16:57:14]    + data rate: 4756 kbps
[16:57:14]  * destination
[16:57:14]    + /tmp/handbrake-7dVfNB/live01
[16:57:14]    + container: MPEG-4 (libavformat)
[16:57:14]      + align initial A/V stream timestamps
[16:57:14]  * video track
[16:57:14]    + decoder: h264 8-bit (yuv420p)
[16:57:14]      + bitrate 4589 kbps
[16:57:14]    + filters
[16:57:14]      + Comb Detect (mode=3:spatial-metric=2:motion-thresh=1:spatial-thresh=1:filter-mode=2:block-thresh=40:block-width=16:block-height=16)
[16:57:14]      + Decomb (mode=39)
[16:57:14]      + Framerate Shaper (mode=2:rate=27000000/900000)
[16:57:14]        + frame rate: 25.000 fps -> peak rate limited to 30.000 fps
[16:57:14]      + Crop and Scale (width=1920:height=1080:crop-top=800:crop-bottom=800:crop-left=390:crop-right=390)
[16:57:14]        + source: 3072 * 4080, crop (800/800/390/390): 2292 * 2480, scale: 1920 * 1080
[16:57:14]    + Output geometry
[16:57:14]      + storage dimensions: 1920 x 1080
[16:57:14]      + pixel aspect ratio: 5157 : 9920
[16:57:14]      + display dimensions: 998 x 1080
[16:57:14]    + encoder: H.264 (libx264)
[16:57:14]      + preset:  fast
[16:57:14]      + profile: main
[16:57:14]      + level:   4.0
[16:57:14]      + quality: 22.00 (RF)
[16:57:14]      + color profile: 1-1-1
[16:57:14]      + color range: tv
[16:57:14]      + chroma location: left
[16:57:14]  * audio track 1
[16:57:14]    + name: Stereo
[16:57:14]    + decoder: Unknown (AAC LC, 2.0 ch, 160 kbps) (track 1, id 0x1)
[16:57:14]      + bitrate: 160 kbps, samplerate: 48000 Hz
[16:57:14]    + mixdown: Stereo
[16:57:14]    + encoder: AAC (libavcodec)
[16:57:14]      + bitrate: 160 kbps, samplerate: 48000 Hz
[16:57:14] sync: expecting 400 video frames
[16:57:14] encx264: encoding at constant RF 22.000000
[16:57:14] encx264: unparsed options: level=4.0:ref=2:8x8dct=0:weightp=1:subme=6:vbv-bufsize=25000:vbv-maxrate=20000:rc-lookahead=30
x264 [info]: using SAR=5157/9920
x264 [info]: using cpu capabilities: MMX2 SSE2Fast SSSE3 SSE4.2 AVX FMA3 BMI2 AVX2
x264 [info]: profile Main, level 4.0, 4:2:0, 8-bit
[16:57:14] sync: first pts video is 0
[16:57:14] sync: first pts audio 0x1 is 0
[16:57:14] sync: Chapter 1 at frame 2 time 6000
[16:57:15] reader: done. 1 scr changes
[16:57:15] work: average encoding speed for job is 0.000000 fps
[16:57:15] comb detect: heavy 0 | light 0 | uncombed 37 | total 37
[16:57:15] decomb: deinterlaced 0 | blended 0 | unfiltered 32 | total 32
[16:57:15] vfr: 28 frames output, 0 dropped and 0 duped for CFR/PFR
[16:57:15] vfr: lost time: 0 (0 frames)
[16:57:15] vfr: gained time: 0 (0 frames) (0 not accounted for)
[16:57:15] aac-decoder done: 178 frames, 0 decoder errors
[16:57:15] h264-decoder done: 84 frames, 0 decoder errors
[16:57:15] sync: got 45 frames, 400 expected
[16:57:15] sync: framerate min 15.000 fps, max 25.000 fps, avg 24.635 fps
[16:57:15] mux: track 0, 0 frames, 0 bytes, 0.00 kbps, fifo 8
[16:57:15] mux: track 1, 84 frames, 37065 bytes, 164.73 kbps, fifo 128
[16:57:15] Finished work at: Wed Jan 14 16:57:15 2026

[16:57:15] libhb: work result = 1
[16:57:23] reader: done. 1 scr changes
[16:57:24] work: average encoding speed for job is 95.523949 fps
[16:57:24] comb detect: heavy 0 | light 9 | uncombed 3156 | total 3165
[16:57:24] decomb: deinterlaced 0 | blended 9 | unfiltered 3156 | total 3165
[16:57:24] vfr: 3165 frames output, 0 dropped and 0 duped for CFR/PFR
[16:57:24] vfr: lost time: 0 (0 frames)
[16:57:24] vfr: gained time: 0 (0 frames) (0 not accounted for)
[16:57:24] aac-decoder done: 5935 frames, 0 decoder errors
[16:57:24] h264-decoder done: 3165 frames, 0 decoder errors
[16:57:24] sync: got 3165 frames, 3165 expected
[16:57:24] sync: framerate min 25.000 fps, max 25.000 fps, avg 25.000 fps
x264 [info]: frame I:24    Avg QP:16.01  size: 78944
x264 [info]: frame P:1031  Avg QP:18.99  size: 21080
x264 [info]: frame B:2110  Avg QP:20.20  size:  2017
x264 [info]: consecutive B-frames:  6.8% 11.2%  5.0% 77.0%
x264 [info]: mb I  I16..4: 54.6%  0.0% 45.4%
x264 [info]: mb P  I16..4: 22.0%  0.0%  8.3%  P16..4: 15.0%  4.3%  1.7%  0.0%  0.0%    skip:48.7%
x264 [info]: mb B  I16..4:  1.0%  0.0%  0.1%  B16..8:  5.8%  0.9%  0.0%  direct: 3.1%  skip:89.1%  L0:39.5% L1:59.1% BI: 1.4%
x264 [info]: coded y,uvDC,uvAC intra: 21.8% 50.1% 15.4% inter: 2.2% 7.0% 0.3%
x264 [info]: i16 v,h,dc,p: 37% 38%  6% 19%
x264 [info]: i4 v,h,dc,ddl,ddr,vr,hd,vl,hu: 21% 35% 18%  4%  5%  3%  7%  3%  4%
x264 [info]: i8c dc,h,v,p: 47% 33% 12%  9%
x264 [info]: Weighted P-Frames: Y:0.5% UV:0.5%
x264 [info]: ref P L0: 76.0% 24.0%
x264 [info]: ref B L0: 82.7% 17.3%
x264 [info]: ref B L1: 97.0%  3.0%
x264 [info]: kb/s:1762.01
[16:57:24] mux: track 0, 3165 frames, 27882850 bytes, 1761.39 kbps, fifo 2048
[16:57:24] mux: track 1, 5936 frames, 2535012 bytes, 160.14 kbps, fifo 4096
[16:57:24] Finished work at: Wed Jan 14 16:57:24 2026

[16:57:24] libhb: work result = 0
[16:57:29] Starting work at: Wed Jan 14 16:57:29 2026

[16:57:29] 1 job(s) to process
[16:57:29] json job:
{
    "Audio": {
        "AudioList": [
            {
                "Bitrate": 160,
                "CompressionLevel": -1.0,
                "DRC": 0.0,
                "DitherMethod": "auto",
                "Encoder": "av_aac",
                "Gain": 0.0,
                "Mixdown": "stereo",
                "Name": "Stereo",
                "NormalizeMixLevel": false,
                "PresetEncoder": "av_aac",
                "Quality": -3.0,
                "Samplerate": 0,
                "Track": 0
            }
        ],
        "CopyMask": [
            "copy:aac"
        ],
        "FallbackEncoder": "av_aac"
    },
    "Destination": {
        "AlignAVStart": true,
        "ChapterList": [
            {
                "Duration": {
                    "Hours": 0,
                    "Minutes": 2,
                    "Seconds": 6,
                    "Ticks": 11395170
                },
                "Name": ""
            }
        ],
        "ChapterMarkers": false,
        "File": "/tmp/handbrake-7dVfNB/live01",
        "InlineParameterSets": false,
        "Mux": "m4v",
        "Options": {
            "IpodAtom": false,
            "Optimize": false
        }
    },
    "Filters": {
        "FilterList": [
            {
                "ID": 4,
                "Settings": {
                    "block-height": "16",
                    "block-thresh": "40",
                    "block-width": "16",
                    "filter-mode": "2",
                    "mode": "3",
                    "motion-thresh": "1",
                    "spatial-metric": "2",
                    "spatial-thresh": "1"
                }
            },
            {
                "ID": 6,
                "Settings": {
                    "mode": "7"
                }
            },
            {
                "ID": 11,
                "Settings": {
                    "mode": 2,
                    "rate": "27000000/900000"
                }
            },
            {
                "ID": 20,
                "Settings": {
                    "crop-bottom": 800,
                    "crop-left": 390,
                    "crop-right": 390,
                    "crop-top": 800,
                    "height": 1080,
                    "width": 1920
                }
            }
        ]
    },
    "Metadata": {},
    "PAR": {
        "Den": 9920,
        "Num": 5157
    },
    "SequenceID": 0,
    "Source": {
        "Angle": 0,
        "HWDecode": 0,
        "KeepDuplicateTitles": false,
        "Path": "/home/ryskowalski/Videos/owshit.mp4",
        "Range": {
            "End": 1350000,
            "SeekPoints": 10,
            "Start": 2,
            "Type": "preview"
        },
        "Title": 1
    },
    "Subtitle": {
        "Search": {
            "Burn": true,
            "Default": false,
            "Enable": false,
            "Forced": false
        },
        "SubtitleList": []
    },
    "Video": {
        "AdapterIndex": -1,
        "AsyncDepth": 0,
        "ChromaLocation": 1,
        "ColorInputFormat": 0,
        "ColorMatrix": 1,
        "ColorOutputFormat": 0,
        "ColorPrimaries": 1,
        "ColorRange": 1,
        "ColorTransfer": 1,
        "Encoder": "x264",
        "HardwareDecode": 0,
        "Level": "4.0",
        "MultiPass": false,
        "Options": "",
        "PasshtruHDRDynamicMetadata": 6,
        "Preset": "fast",
        "Profile": "main",
        "Quality": 22.0,
        "Tune": "",
        "Turbo": false
    }
}
[16:57:29] CPU: 13th Gen Intel(R) Core(TM) i5-13600KF
[16:57:29]  - logical processor count: 20
[16:57:29] Intel Quick Sync Video support: no
[16:57:29] hb_scan: path=/home/ryskowalski/Videos/owshit.mp4, title_index=1
Input #0, mov,mp4,m4a,3gp,3g2,mj2, from '/home/ryskowalski/Videos/owshit.mp4':
  Metadata:
    major_brand     : isom
    minor_version   : 512
    compatible_brands: isomiso2avc1mp41
    encoder         : Lavf62.3.100
  Duration: 00:02:06.61, start: 0.000000, bitrate: 4756 kb/s
  Stream #0:0[0x1](und): Video: h264 (High) (avc1 / 0x31637661), yuv420p(tv, bt709, progressive), 3072x4080 [SAR 1:1 DAR 64:85], 4589 kb/s, 25 fps, 25 tbr, 12800 tbn (default)
      Metadata:
        handler_name    : VideoHandler
        vendor_id       : [0][0][0][0]
  Stream #0:1[0x2](und): Audio: aac (LC) (mp4a / 0x6134706D), 48000 Hz, stereo, fltp, 160 kb/s (default)
      Metadata:
        handler_name    : SoundHandler
        vendor_id       : [0][0][0][0]
[16:57:29] scan: decoding previews for title 1
[16:57:29] scan: audio 0x1: aac, rate=48000Hz, bitrate=160978 Unknown (AAC LC, 2.0 ch, 160 kbps)
[16:57:30] using container PAR 1:1
[16:57:30] scan: 10 previews, 3072x4080, 25.000 fps, autocrop = 800/800/390/390, aspect 1:1.33, PAR 1:1, color profile: 1-1-1, chroma location: left
[16:57:30] libhb: scan thread found 1 valid title(s)
[16:57:30] Starting Task: Encoding Pass
[16:57:30] job configuration:
[16:57:30]  * source
[16:57:30]    + /home/ryskowalski/Videos/owshit.mp4
[16:57:30]    + title 1, start 00:00:00.00 stop 00:00:15.00
[16:57:30]    + container: mov,mp4,m4a,3gp,3g2,mj2
[16:57:30]    + data rate: 4756 kbps
[16:57:30]  * destination
[16:57:30]    + /tmp/handbrake-7dVfNB/live01
[16:57:30]    + container: MPEG-4 (libavformat)
[16:57:30]      + align initial A/V stream timestamps
[16:57:30]  * video track
[16:57:30]    + decoder: h264 8-bit (yuv420p)
[16:57:30]      + bitrate 4589 kbps
[16:57:30]    + filters
[16:57:30]      + Comb Detect (mode=3:spatial-metric=2:motion-thresh=1:spatial-thresh=1:filter-mode=2:block-thresh=40:block-width=16:block-height=16)
[16:57:30]      + Decomb (mode=39)
[16:57:30]      + Framerate Shaper (mode=2:rate=27000000/900000)
[16:57:30]        + frame rate: 25.000 fps -> peak rate limited to 30.000 fps
[16:57:30]      + Crop and Scale (width=1920:height=1080:crop-top=800:crop-bottom=800:crop-left=390:crop-right=390)
[16:57:30]        + source: 3072 * 4080, crop (800/800/390/390): 2292 * 2480, scale: 1920 * 1080
[16:57:30]    + Output geometry
[16:57:30]      + storage dimensions: 1920 x 1080
[16:57:30]      + pixel aspect ratio: 5157 : 9920
[16:57:30]      + display dimensions: 998 x 1080
[16:57:30]    + encoder: H.264 (libx264)
[16:57:30]      + preset:  fast
[16:57:30]      + profile: main
[16:57:30]      + level:   4.0
[16:57:30]      + quality: 22.00 (RF)
[16:57:30]      + color profile: 1-1-1
[16:57:30]      + color range: tv
[16:57:30]      + chroma location: left
[16:57:30]  * audio track 1
[16:57:30]    + name: Stereo
[16:57:30]    + decoder: Unknown (AAC LC, 2.0 ch, 160 kbps) (track 1, id 0x1)
[16:57:30]      + bitrate: 160 kbps, samplerate: 48000 Hz
[16:57:30]    + mixdown: Stereo
[16:57:30]    + encoder: AAC (libavcodec)
[16:57:30]      + bitrate: 160 kbps, samplerate: 48000 Hz
[16:57:30] sync: expecting 400 video frames
[16:57:30] encx264: encoding at constant RF 22.000000
[16:57:30] encx264: unparsed options: level=4.0:ref=2:8x8dct=0:weightp=1:subme=6:vbv-bufsize=25000:vbv-maxrate=20000:rc-lookahead=30
x264 [info]: using SAR=5157/9920
x264 [info]: using cpu capabilities: MMX2 SSE2Fast SSSE3 SSE4.2 AVX FMA3 BMI2 AVX2
x264 [info]: profile Main, level 4.0, 4:2:0, 8-bit
[16:57:30] sync: first pts video is 0
[16:57:30] sync: first pts audio 0x1 is 0
[16:57:30] sync: Chapter 1 at frame 2 time 6000
[16:57:34] sync: reached audio 0x1 pts 1351680, exiting early
[16:57:34] sync: reached video pts 1352400, exiting early
[16:57:35] work: average encoding speed for job is 0.000000 fps
[16:57:35] comb detect: heavy 0 | light 2 | uncombed 373 | total 375
[16:57:35] decomb: deinterlaced 0 | blended 2 | unfiltered 373 | total 375
[16:57:35] vfr: 375 frames output, 0 dropped and 0 duped for CFR/PFR
[16:57:35] vfr: lost time: 0 (0 frames)
[16:57:35] vfr: gained time: 0 (0 frames) (0 not accounted for)
[16:57:35] aac-decoder done: 1127 frames, 0 decoder errors
[16:57:35] h264-decoder done: 585 frames, 0 decoder errors
[16:57:35] sync: got 375 frames, 400 expected
[16:57:35] sync: framerate min 15.000 fps, max 25.000 fps, avg 24.956 fps
x264 [info]: frame I:4     Avg QP:15.36  size: 61916
x264 [info]: frame P:143   Avg QP:20.34  size: 26786
x264 [info]: frame B:228   Avg QP:20.95  size:  4044
x264 [info]: consecutive B-frames: 11.7% 18.7%  8.8% 60.8%
x264 [info]: mb I  I16..4: 62.1%  0.0% 37.9%
x264 [info]: mb P  I16..4: 26.9%  0.0% 11.0%  P16..4: 17.9%  5.2%  1.7%  0.0%  0.0%    skip:37.3%
x264 [info]: mb B  I16..4:  2.0%  0.0%  0.4%  B16..8:  9.5%  1.9%  0.0%  direct: 5.1%  skip:81.0%  L0:43.3% L1:54.9% BI: 1.8%
x264 [info]: coded y,uvDC,uvAC intra: 22.6% 52.6% 16.3% inter: 3.5% 11.2% 0.4%
x264 [info]: i16 v,h,dc,p: 36% 38%  6% 20%
x264 [info]: i4 v,h,dc,ddl,ddr,vr,hd,vl,hu: 21% 35% 18%  5%  5%  3%  7%  3%  3%
x264 [info]: i8c dc,h,v,p: 45% 33% 12% 10%
x264 [info]: Weighted P-Frames: Y:0.0% UV:0.0%
x264 [info]: ref P L0: 72.8% 27.2%
x264 [info]: ref B L0: 81.6% 18.4%
x264 [info]: ref B L1: 98.0%  2.0%
x264 [info]: kb/s:2661.95
[16:57:35] mux: track 0, 375 frames, 4999890 bytes, 2659.52 kbps, fifo 512
[16:57:35] mux: track 1, 705 frames, 307933 bytes, 163.79 kbps, fifo 1024
[16:57:35] Finished work at: Wed Jan 14 16:57:35 2026

[16:57:35] libhb: work result = 0
